<?xml version="1.0" encoding="UTF-8" standalone="no"?>
<!-- Created with Inkscape (http://www.inkscape.org/) -->

<svg
   xmlns:dc="http://purl.org/dc/elements/1.1/"
   xmlns:cc="http://creativecommons.org/ns#"
   xmlns:rdf="http://www.w3.org/1999/02/22-rdf-syntax-ns#"
   xmlns:svg="http://www.w3.org/2000/svg"
   xmlns="http://www.w3.org/2000/svg"
   version="1.1"
   width="839.83838"
   height="466.38489"
   id="svg2">
  <defs
     id="defs4">
    <clipPath
       id="clipPath2999">
      <path
         d="m 0,841.89 1190.55,0 L 1190.55,0 0,0 0,841.89 z"
         id="path3001" />
    </clipPath>
  </defs>
  <metadata
     id="metadata7">
    <rdf:RDF>
      <cc:Work
         rdf:about="">
        <dc:format>image/svg+xml</dc:format>
        <dc:type
           rdf:resource="http://purl.org/dc/dcmitype/StillImage" />
        <dc:title></dc:title>
      </cc:Work>
    </rdf:RDF>
  </metadata>
  <g
     transform="translate(-205.79509,37.973115)"
     id="layer1">
    <g
       transform="matrix(1.25,0,0,-1.25,-129.50078,689.58626)"
       id="g2993"
       style="fill:#000000;fill-opacity:1">
      <g
         id="g2995"
         style="fill:#000000;fill-opacity:1">
        <g
           clip-path="url(#clipPath2999)"
           id="g2997"
           style="fill:#000000;fill-opacity:1">
          <g
             transform="translate(404.2417,408.5225)"
             id="g3003"
             style="fill:#000000;fill-opacity:1">
            <path
               d="m 0,0 -73.994,0 c -7.816,0 -12.509,4.688 -12.509,11.463 0,6.254 4.693,12.505 12.509,12.505 l 73.994,0 c 21.368,0 37.52,-16.152 37.52,-37.52 l 0,-147.469 C 37.52,-182.385 21.368,-198.54 0,-198.54 l -99.008,0 c -20.323,0 -36.997,16.155 -36.997,37.519 l 0,295.983 c 0,21.365 16.674,38.563 36.997,38.563 6.774,0 12.505,-6.254 12.505,-12.509 0,-7.817 -5.731,-12.506 -12.505,-12.506 -6.251,0 -11.987,-5.731 -11.987,-13.548 l 0,-295.983 c 0,-7.816 5.736,-13.547 11.987,-13.547 l 99.008,0 c 7.816,0 13.548,5.731 13.548,13.547 l 0,147.469 C 13.548,-5.735 7.816,0 0,0"
               id="path3005"
               style="fill:#000000;fill-opacity:1;fill-rule:nonzero;stroke:none" />
          </g>
          <g
             transform="translate(511.3594,480.9541)"
             id="g3007"
             style="fill:#000000;fill-opacity:1">
            <path
               d="m 0,0 c 0,-10.943 -8.335,-19.283 -18.237,-19.283 -10.944,0 -18.76,8.34 -18.76,19.283 0,9.901 7.816,18.237 18.76,18.237 C -8.335,18.237 0,9.901 0,0 m -6.251,-85.983 0,-147.469 C -6.251,-241.269 0,-247 6.777,-247 c 6.251,0 11.983,-4.692 11.983,-12.509 0,-6.251 -5.732,-11.463 -11.983,-11.463 -20.844,0 -37.519,16.156 -37.519,37.52 l 0,147.469 c 0,7.816 -4.69,13.551 -12.506,13.551 -6.777,0 -13.028,4.689 -13.028,11.463 0,6.255 6.251,12.506 13.028,12.506 21.365,0 36.997,-16.152 36.997,-37.52"
               id="path3009"
               style="fill:#000000;fill-opacity:1;fill-rule:nonzero;stroke:none" />
          </g>
          <g
             transform="translate(573.5303,522.6401)"
             id="g3011"
             style="fill:#000000;fill-opacity:1">
            <path
               d="m 0,0 0,-75.036 c 0,-7.817 4.692,-13.548 11.466,-13.548 l 38.04,0 c 20.845,0 37.519,-15.633 37.519,-36.477 0,-20.326 -16.674,-37.521 -37.519,-37.521 l -38.04,0 C 4.692,-162.582 0,-168.313 0,-175.087 l 0,-100.051 c 0,-7.817 4.692,-13.548 11.466,-13.548 l 74.517,0 c 6.775,0 13.029,-4.692 13.029,-12.509 0,-6.251 -6.254,-11.463 -13.029,-11.463 l -74.517,0 c -20.325,0 -36.477,16.156 -36.477,37.52 l 0,100.051 c 0,20.841 16.152,37.52 36.477,37.52 l 38.04,0 c 6.773,0 13.028,4.69 13.028,12.506 0,6.773 -6.255,11.463 -13.028,11.463 l -38.04,0 c -20.325,0 -36.477,17.198 -36.477,38.562 l 0,75.036 c 0,6.254 4.689,12.505 11.463,12.505 C -5.731,12.505 0,6.254 0,0"
               id="path3013"
               style="fill:#000000;fill-opacity:1;fill-rule:nonzero;stroke:none" />
          </g>
          <g
             transform="translate(940.1074,526.8096)"
             id="g3015"
             style="fill:#000000;fill-opacity:1">
            <path
               d="m 0,0 0,-78.163 c 0,-20.326 -16.152,-37.521 -37.517,-37.521 l -124.022,0 c -7.816,0 -12.506,-4.17 -12.506,-11.986 0,-6.773 4.69,-13.027 12.506,-13.027 l 124.022,0 C -16.152,-140.697 0,-156.33 0,-177.695 l 0,-103.178 c 0,-20.321 -16.152,-36.997 -37.517,-36.997 l -184.992,0 c -7.816,0 -13.547,5.732 -13.547,12.506 0,7.816 5.731,12.509 13.547,12.509 l 184.992,0 c 7.817,0 12.506,5.731 12.506,11.982 l 0,103.178 c 0,7.816 -4.689,12.506 -12.506,12.506 l -124.022,0 c -20.322,0 -36.997,17.198 -36.997,37.519 0,21.365 16.675,36.998 36.997,36.998 l 124.022,0 c 7.817,0 12.506,4.693 12.506,12.509 l 0,78.163 c 0,7.816 -4.689,11.986 -12.506,11.986 l -184.992,0 c -7.816,0 -13.547,6.251 -13.547,12.506 0,6.774 5.731,12.505 13.547,12.505 l 184.992,0 C -16.152,36.997 0,20.322 0,0"
               id="path3017"
               style="fill:#000000;fill-opacity:1;fill-rule:nonzero;stroke:none" />
          </g>
        </g>
      </g>
    </g>
  </g>
</svg>
